<?xml version="1.0" encoding="UTF-8"?><svg id="Layer_1" xmlns="http://www.w3.org/2000/svg" viewBox="0 0 821.85 143.31"><path d="M38.33,136.7c-1.93,0-3.52-.59-4.83-1.94-.95-.98-1.57-2.12-1.71-3.54v-16.29c.17-1.63.88-2.98,2.06-4.02s2.47-1.42,4.02-1.42h16.92c.45,0,.85-.06,1.27-.1.91-.07,1.73-.37,2.48-.87.97-.65,1.86-1.32,2.79-2.02l3.27-2.46,4.28-3.22,3.53-2.63,2.22-1.66c.9-.67,1.73-1.41,2.46-2.23.91-1.02,1.26-2.15,1.26-3.53v-18.94c0-1-.15-1.87-.57-2.75s-.92-1.75-1.43-2.62l-2.08-3.57-1.9-3.32-1.72-3.01-2.95-5.05-3.52-6.1c-.85-1.47-2.7-3-4.52-3l-28.32-.03c-1.46-.11-2.59-.73-3.58-1.67-1.38-1.31-1.97-2.92-1.97-4.83V6.67c0-1.92.58-3.6,1.97-4.91.84-.79,1.82-1.38,3.02-1.53.61-.08,1.21-.22,1.88-.22h28.72c.44,0,.82.1,1.22.12,1.56.09,2.92.72,3.96,1.88,1.3,1.45,1.55,2.62,1.55,4.59v27.86c0,2.23-.05,3.59,1.03,5.44l1.91,3.31,3.37,5.89,5.46,9.47,2.32,3.98c.41.7.73,1.34,1.24,2.01.91,1.19,2.32,2.25,3.94,2.25l18.99.07c3.1.01,5.74,3.02,5.74,5.93l.03,22c-.16,1.57-.81,2.86-1.93,3.93-1.09,1.1-2.48,1.88-4.12,1.88l-23.84.06c-1.2,0-2.28.53-3.18,1.2l-2.23,1.67-3.69,2.8-3.88,2.95-6.77,5.11c-1.61,1.22-3.61,2.82-3.62,5.07l-.06,11.04c0,1.53-.48,2.82-1.48,3.95-1.37,1.55-3.25,2.23-5.33,2.23h-13.68Z"/><path d="M124.42,138.35c-.38,2.48-2.63,4.51-5.04,4.81-.51.06-1,.15-1.53.15h-9.26c-2.77,0-4.35-.24-6.21-2.3-.88-.98-1.43-2.18-1.43-3.56v-12.03c0-1.56.65-2.9,1.71-3.96,1.15-1.32,2.69-1.97,4.46-1.97l10.48-.02.93.06c1.8.12,3.34.77,4.49,2.13.71.83,1.29,1.74,1.42,2.86.09.74.15,1.44.15,2.2v9.43c0,.76-.05,1.46-.16,2.21Z"/><path d="M116.01,33.09l-11.13.02c-.39,0-.8-.07-1.16-.11-1.47-.16-2.67-.86-3.65-1.9s-1.51-2.27-1.5-3.74v-12.31c0-1.35.45-2.48,1.28-3.47,1.13-1.34,2.61-2.03,4.39-2.23l12.05.03c1.86,0,3.4,1.01,4.55,2.37.73,1.01,1.28,2.14,1.28,3.45v11.96c0,3.08-2.8,5.91-6.12,5.92Z"/><path d="M22.24,81.25c-1.07,1.24-2.58,2.43-4.33,2.43H5.25c-2.22,0-4.64-2.24-5.25-4.41v-14.65c.85-2.8,3.38-4.66,6.27-4.66h10.73c3.81,0,6.5,2.78,6.5,6.56v11.16c-.01,1.35-.39,2.57-1.26,3.57Z"/><path d="M157.76,124.37V25.47h35.47l19.64,86.19h2.54V25.47h18.37v98.91h-35.47l-19.64-86.19h-2.54v86.19h-18.37Z"/><path d="M282.81,126.35c-6.97,0-13.24-1.41-18.79-4.24-5.56-2.83-9.94-6.92-13.14-12.29-3.2-5.37-4.8-11.82-4.8-19.36v-2.26c0-7.54,1.6-13.99,4.8-19.36,3.2-5.37,7.58-9.47,13.14-12.29,5.56-2.83,11.82-4.24,18.79-4.24s13.23,1.41,18.79,4.24c5.56,2.83,9.94,6.92,13.14,12.29,3.2,5.37,4.8,11.82,4.8,19.36v2.26c0,7.54-1.6,13.99-4.8,19.36-3.2,5.37-7.58,9.47-13.14,12.29-5.56,2.83-11.82,4.24-18.79,4.24ZM282.81,110.53c5.46,0,9.98-1.77,13.56-5.3,3.58-3.53,5.37-8.59,5.37-15.19v-1.41c0-6.59-1.77-11.66-5.3-15.19-3.53-3.53-8.08-5.3-13.63-5.3s-9.99,1.77-13.56,5.3c-3.58,3.53-5.37,8.6-5.37,15.19v1.41c0,6.59,1.79,11.66,5.37,15.19,3.58,3.53,8.1,5.3,13.56,5.3Z"/><path d="M360.66,126.35c-5.56,0-10.76-1.39-15.61-4.17-4.85-2.78-8.74-6.85-11.66-12.22-2.92-5.37-4.38-11.87-4.38-19.5v-2.26c0-7.63,1.46-14.13,4.38-19.5,2.92-5.37,6.78-9.44,11.59-12.22,4.8-2.78,10.03-4.17,15.68-4.17,4.24,0,7.79.49,10.67,1.48,2.87.99,5.2,2.24,6.99,3.74,1.79,1.51,3.15,3.11,4.1,4.8h2.54V25.47h17.8v98.91h-17.52v-8.48h-2.54c-1.6,2.64-4.08,5.04-7.42,7.21-3.34,2.17-8.22,3.25-14.62,3.25ZM366.03,110.81c5.46,0,10.03-1.77,13.71-5.3,3.67-3.53,5.51-8.69,5.51-15.47v-1.41c0-6.78-1.81-11.94-5.44-15.47-3.63-3.53-8.22-5.3-13.78-5.3s-10.03,1.77-13.71,5.3c-3.67,3.53-5.51,8.69-5.51,15.47v1.41c0,6.78,1.84,11.94,5.51,15.47s8.24,5.3,13.71,5.3Z"/><path d="M450.95,126.35c-6.97,0-13.12-1.48-18.44-4.45-5.32-2.97-9.47-7.16-12.43-12.58-2.97-5.42-4.45-11.8-4.45-19.15v-1.7c0-7.35,1.46-13.73,4.38-19.15,2.92-5.42,7.02-9.61,12.29-12.58,5.27-2.97,11.4-4.45,18.37-4.45s12.86,1.53,17.94,4.59c5.09,3.06,9.04,7.3,11.87,12.72,2.83,5.42,4.24,11.71,4.24,18.86v6.08h-51.01c.19,4.8,1.98,8.71,5.37,11.73,3.39,3.02,7.54,4.52,12.43,4.52s8.67-1.08,11.02-3.25c2.35-2.17,4.14-4.57,5.37-7.21l14.55,7.63c-1.32,2.45-3.23,5.11-5.72,7.98-2.5,2.88-5.82,5.32-9.96,7.35-4.15,2.02-9.42,3.04-15.83,3.04ZM433.85,81.28h32.78c-.38-4.05-2-7.3-4.88-9.75-2.87-2.45-6.62-3.67-11.23-3.67s-8.62,1.23-11.44,3.67c-2.83,2.45-4.57,5.7-5.23,9.75Z"/><path d="M534.03,126.35c-12.25,0-21.95-3.41-29.11-10.24-7.16-6.83-10.74-16.6-10.74-29.32v-23.74c0-12.72,3.58-22.49,10.74-29.32,7.16-6.83,16.86-10.24,29.11-10.24s21.55,3.32,28.19,9.96c6.64,6.64,9.96,15.75,9.96,27.34v.85h-18.37v-1.41c0-5.84-1.62-10.64-4.87-14.41-3.25-3.77-8.22-5.65-14.91-5.65s-11.78,2.03-15.54,6.08c-3.77,4.05-5.65,9.56-5.65,16.53v24.3c0,6.88,1.88,12.36,5.65,16.46,3.77,4.1,8.95,6.15,15.54,6.15s11.66-1.91,14.91-5.72c3.25-3.82,4.87-8.59,4.87-14.34v-2.54h18.37v1.98c0,11.59-3.32,20.7-9.96,27.34-6.64,6.64-16.04,9.96-28.19,9.96Z"/><path d="M584.48,124.37V54.29h17.52v7.91h2.54c1.04-2.83,2.75-4.9,5.16-6.22,2.4-1.32,5.2-1.98,8.41-1.98h8.48v15.83h-8.76c-4.52,0-8.24,1.2-11.16,3.6-2.92,2.4-4.38,6.1-4.38,11.09v39.85h-17.8Z"/><path d="M656.96,126.35c-4.99,0-9.47-.87-13.42-2.61-3.96-1.74-7.09-4.29-9.4-7.63-2.31-3.34-3.46-7.42-3.46-12.22s1.15-8.83,3.46-12.08c2.31-3.25,5.51-5.7,9.61-7.35,4.1-1.65,8.78-2.47,14.06-2.47h19.22v-3.96c0-3.3-1.04-6-3.11-8.12-2.07-2.12-5.37-3.18-9.89-3.18s-7.72,1.01-9.89,3.04c-2.17,2.03-3.58,4.64-4.24,7.84l-16.39-5.51c1.13-3.58,2.94-6.85,5.44-9.82,2.5-2.97,5.84-5.37,10.03-7.21,4.19-1.84,9.3-2.76,15.33-2.76,9.23,0,16.53,2.31,21.9,6.92,5.37,4.62,8.05,11.3,8.05,20.06v26.14c0,2.83,1.32,4.24,3.96,4.24h5.65v14.69h-11.87c-3.49,0-6.36-.85-8.62-2.54-2.26-1.7-3.39-3.96-3.39-6.78v-.14h-2.68c-.38,1.13-1.23,2.61-2.54,4.45-1.32,1.84-3.39,3.46-6.22,4.87-2.83,1.41-6.69,2.12-11.59,2.12ZM660.07,111.94c4.99,0,9.07-1.39,12.22-4.17,3.15-2.78,4.73-6.48,4.73-11.09v-1.41h-17.95c-3.3,0-5.89.71-7.77,2.12-1.88,1.41-2.83,3.39-2.83,5.93s.99,4.62,2.97,6.22c1.98,1.6,4.85,2.4,8.62,2.4Z"/><path d="M724.92,124.37v-55.39h-17.8v-14.69h17.8v-13c0-4.8,1.44-8.64,4.31-11.52,2.87-2.87,6.62-4.31,11.23-4.31h18.37v14.69h-12.15c-2.64,0-3.96,1.41-3.96,4.24v9.89h18.37v14.69h-18.37v55.39h-17.8Z"/><path d="M800.38,124.37c-4.62,0-8.36-1.43-11.23-4.31-2.87-2.87-4.31-6.71-4.31-11.52v-39.56h-17.52v-14.69h17.52v-21.76h17.8v21.76h19.22v14.69h-19.22v36.46c0,2.83,1.32,4.24,3.96,4.24h13.56v14.69h-19.78Z"/></svg>