<?xml version="1.0" encoding="UTF-8"?><svg id="Layer_1" xmlns="http://www.w3.org/2000/svg" viewBox="0 0 972.32 206.55"><defs><style>.cls-1{fill:#fff;}</style></defs><path class="cls-1" d="M6.32,157.88v-4.09l13.47-5.39V42.9l-13.47-5.39v-4.09h42.16v124.45H6.32ZM35.48,44.86l1.21-11.42h36.87c9.6,0,17.38,1.29,23.36,3.85,5.97,2.57,10.34,6.07,13.09,10.49,2.75,4.43,4.13,9.43,4.13,15,0,7.68-2.65,14.15-7.94,19.41-5.29,5.26-12.46,8.3-21.5,9.1l.28-1.39c11.39.62,20.39,3.85,26.98,9.7,6.59,5.85,9.89,13.27,9.89,22.24,0,6.87-1.66,13.03-4.97,18.48-3.31,5.45-8.5,9.74-15.56,12.86-7.06,3.13-16.22,4.69-27.49,4.69h-37.06l-1.49-11.42h29.35c5.63,0,10.46-.88,14.49-2.65,4.02-1.76,7.12-4.52,9.29-8.27,2.17-3.75,3.25-8.53,3.25-14.35,0-4.64-.93-8.74-2.79-12.31-1.86-3.56-4.72-6.35-8.59-8.36-3.87-2.01-8.84-3.02-14.91-3.02h-30.18l.28-11.33h29.07c6.38,0,11.42-1.8,15.14-5.39,3.71-3.59,5.57-8.95,5.57-16.07,0-3.96-.82-7.43-2.46-10.4-1.64-2.97-4.15-5.29-7.52-6.97-3.38-1.67-7.63-2.51-12.77-2.51h-27.03Z"/><path class="cls-1" d="M166.61,93.89v54.89l12.82,5.39v3.71h-49.87v-3.71l11.33-4.92v-51.45c-.99-1.42-2.09-2.63-3.3-3.62-1.21-.99-2.54-1.89-3.99-2.69-1.46-.8-3.08-1.55-4.88-2.23v-3.34l32.41-10.77h3.06l2.41,18.76ZM192.15,76.06c3.96,0,6.78,1.08,8.45,3.25,1.67,2.17,2.51,4.77,2.51,7.8,0,4.33-1.36,7.57-4.09,9.7-2.73,2.14-5.73,3.2-9.01,3.2-2.54,0-4.61-.28-6.22-.84-1.61-.56-3.11-1.1-4.5-1.63-1.39-.53-3.11-.79-5.15-.79-1.36,0-2.74.17-4.13.51-1.39.34-2.74.85-4.04,1.53-1.3.68-2.57,1.58-3.81,2.69l-2.23-4.83c3.28-3.53,6.38-6.59,9.29-9.19,2.91-2.6,5.7-4.74,8.36-6.41,2.66-1.67,5.2-2.93,7.62-3.76,2.41-.84,4.74-1.25,6.97-1.25Z"/><path class="cls-1" d="M253.54,107.54l.56,8.17c-5.08,1.18-9.23,2.43-12.44,3.76-3.22,1.33-5.7,2.71-7.43,4.13-1.73,1.42-2.93,2.96-3.58,4.6-.65,1.64-.98,3.39-.98,5.25,0,3.96.87,6.84,2.6,8.64,1.73,1.8,3.99,2.69,6.78,2.69,1.92,0,3.67-.53,5.25-1.58,1.58-1.05,2.85-2.46,3.81-4.23.96-1.76,1.44-3.7,1.44-5.8v-35.38c0-3.53-1.01-6.36-3.02-8.5-2.01-2.14-5.19-3.2-9.52-3.2-1.8,0-3.65.19-5.57.56-1.92.37-3.68.9-5.29,1.58l3.16-6.32c-.43,3.53-.88,6.42-1.35,8.68-.46,2.26-.94,4.04-1.44,5.34-.5,1.3-1.11,2.32-1.86,3.06-.99,1.18-2.37,2.12-4.13,2.83-1.76.71-3.67,1.07-5.71,1.07-2.66,0-4.74-.51-6.22-1.53s-2.23-2.46-2.23-4.32c0-2.6,1.18-5.19,3.53-7.75,2.35-2.57,5.51-4.91,9.47-7.01,3.96-2.1,8.4-3.78,13.33-5.02,4.92-1.24,9.98-1.86,15.18-1.86,7.06,0,12.58,1.08,16.58,3.25,3.99,2.17,6.78,5.15,8.36,8.96,1.58,3.81,2.37,8.25,2.37,13.33v39.94c0,1.55.23,2.85.7,3.9.46,1.05,1.11,1.83,1.95,2.32.84.5,1.9.74,3.2.74,1.18,0,2.46-.2,3.85-.6,1.39-.4,2.83-1.07,4.32-2v5.85c-3.22,2.72-6.69,4.94-10.4,6.64s-7.18,2.55-10.4,2.55c-4.21,0-7.62-.81-10.22-2.42-2.6-1.61-4.52-3.87-5.76-6.78-1.24-2.91-1.92-6.22-2.04-9.94l.93-.37c-1.18,4.33-2.91,7.94-5.2,10.82-2.29,2.88-5.02,5.05-8.17,6.5s-6.63,2.18-10.4,2.18c-6.63,0-12.03-1.75-16.21-5.25-4.18-3.5-6.27-8.84-6.27-16.02,0-3.4.7-6.5,2.09-9.29s3.85-5.43,7.38-7.94c3.53-2.51,8.45-4.92,14.77-7.24,6.31-2.32,14.4-4.66,24.24-7.01Z"/><path class="cls-1" d="M327.83,93.89v56l9.94,4.27v3.71h-46.99v-3.71l11.33-4.92v-51.45c-1.43-1.98-3.08-3.61-4.97-4.88-1.89-1.27-4.29-2.49-7.2-3.67v-3.34l30-10.77h3.06l4.83,18.76ZM346.31,154.16l9.94-4.27v-43.93c0-2.79-.5-5.08-1.49-6.87-.99-1.79-2.49-3.13-4.5-3.99-2.01-.87-4.54-1.3-7.57-1.3-3.71,0-7.12.54-10.22,1.62-3.1,1.08-5.54,2.46-7.34,4.13l-3.81-3.81c3.9-4.33,7.46-7.85,10.68-10.54,3.22-2.69,6.22-4.77,9.01-6.22,2.79-1.45,5.54-2.46,8.27-3.02,2.72-.56,5.57-.84,8.54-.84,8.17,0,14.24,2.49,18.2,7.48,3.96,4.98,5.94,12.68,5.94,23.08v43.56l11.52,4.92v3.71h-47.18v-3.71Z"/><path class="cls-1" d="M458.69,101.79c0-4.95-1.24-9.07-3.71-12.35-2.48-3.28-6.13-4.92-10.96-4.92-3.84,0-7.15,1.1-9.94,3.3-2.79,2.2-4.91,5.59-6.36,10.17-1.46,4.58-2.18,10.46-2.18,17.65,0,6.81.82,12.48,2.46,17,1.64,4.52,3.92,7.88,6.83,10.08,2.91,2.2,6.38,3.3,10.4,3.3,2.91,0,5.91-.43,9.01-1.3,3.1-.87,6.07-2.32,8.92-4.37v8.36c-3.65,2.23-6.89,4.1-9.71,5.62-2.82,1.52-5.36,2.72-7.62,3.62-2.26.9-4.38,1.52-6.36,1.86-1.98.34-3.93.51-5.85.51-7.62,0-14.02-1.63-19.22-4.88-5.2-3.25-9.13-7.79-11.79-13.61-2.66-5.82-3.99-12.48-3.99-19.97s1.3-14.41,3.9-20.2c2.6-5.79,6.13-10.65,10.59-14.58,4.46-3.93,9.44-6.9,14.95-8.92,5.51-2.01,11.24-3.02,17.18-3.02,3.22,0,6.33.25,9.33.74,3,.5,6.11,1.25,9.33,2.28,3.22,1.02,6.75,2.4,10.59,4.13l-15.79,1.86v-35.2c-.93-1.24-2-2.35-3.2-3.34-1.21-.99-2.62-1.96-4.23-2.93-1.61-.96-3.53-1.93-5.76-2.93v-3.99l37.52-10.22h2.97l-1.58,19.87v96.86c.74.81,1.56,1.56,2.46,2.28.9.71,1.86,1.38,2.88,2,1.02.62,2.09,1.18,3.21,1.67,1.11.5,2.29.96,3.53,1.39v3.53l-32.13,7.06h-2.97l-2.69-14.95v-43.46Z"/><path class="cls-1" d="M510.23,157.88V27.86h39.93c9.29,0,16.81,1.49,22.57,4.46,5.76,2.97,10.06,6.94,12.91,11.89,2.85,4.95,4.27,10.28,4.27,15.97,0,6.94-1.46,12.63-4.36,17.09-2.91,4.46-6.66,7.87-11.24,10.22-4.58,2.35-9.41,3.9-14.49,4.64l1.3-1.86c5.45.12,10.59,1.61,15.42,4.46,4.83,2.85,8.76,6.63,11.79,11.33,3.03,4.71,4.55,10.16,4.55,16.35s-1.42,11.98-4.27,17.37c-2.85,5.39-7.34,9.75-13.47,13.1-6.13,3.34-14.09,5.01-23.87,5.01h-41.05ZM518.59,87.3h32.69c9.66,0,17.02-2.41,22.1-7.24,5.08-4.83,7.62-11.21,7.62-19.13s-2.57-13.77-7.71-18.67c-5.14-4.89-12.66-7.34-22.57-7.34h-32.13v52.38ZM518.59,150.64h33.06c10.4,0,18.42-2.54,24.05-7.62,5.63-5.08,8.45-12.07,8.45-20.99,0-8.17-3-14.83-9.01-19.97-6.01-5.14-14.09-7.71-24.24-7.71h-32.32v56.28Z"/><path class="cls-1" d="M638.02,160.11c-6.94,0-12.82-1.36-17.65-4.09-4.83-2.72-8.51-6.28-11.05-10.68-2.54-4.39-3.81-9.13-3.81-14.21,0-6.81,1.58-12.38,4.74-16.72,3.16-4.33,7.55-7.58,13.19-9.75,5.63-2.17,12.17-3.25,19.6-3.25h28.23c0-6.56-.96-12.26-2.88-17.09-1.92-4.83-4.86-8.51-8.82-11.05-3.96-2.54-9.17-3.81-15.6-3.81-7.43,0-13.65,1.8-18.67,5.39-5.02,3.59-8.14,9.04-9.38,16.35h-8.73c.99-6.56,3.22-11.98,6.69-16.25,3.47-4.27,7.86-7.49,13.19-9.66,5.32-2.17,10.96-3.25,16.9-3.25,8.54,0,15.45,1.67,20.71,5.01,5.26,3.34,9.07,7.93,11.42,13.75,2.35,5.82,3.53,12.44,3.53,19.87v57.21h-7.62l-.56-18.57c-1.11,1.98-2.54,4.15-4.27,6.5-1.74,2.35-3.9,4.64-6.5,6.87-2.6,2.23-5.73,4.03-9.38,5.39-3.65,1.36-8.08,2.04-13.28,2.04ZM639.13,152.49c5.2,0,9.81-1.02,13.84-3.06,4.02-2.04,7.4-4.77,10.12-8.17,2.72-3.4,4.77-7.06,6.13-10.96,1.36-3.9,2.04-7.83,2.04-11.79v-10.03h-27.49c-7.43,0-13.28.99-17.55,2.97-4.27,1.98-7.31,4.64-9.1,7.99-1.8,3.34-2.69,7.12-2.69,11.33,0,3.96.96,7.59,2.88,10.87,1.92,3.28,4.77,5.92,8.54,7.89,3.78,1.98,8.2,2.97,13.28,2.97Z"/><path class="cls-1" d="M731.45,160.11c-6.81,0-12.97-1.15-18.48-3.44-5.51-2.29-9.91-5.69-13.19-10.22-3.28-4.52-5.23-10.18-5.85-17h8.73c.37,4.83,1.89,8.98,4.55,12.45,2.66,3.47,6.07,6.1,10.22,7.89,4.15,1.8,8.95,2.69,14.4,2.69,4.7,0,8.88-.8,12.54-2.41,3.65-1.61,6.44-3.84,8.36-6.69,1.92-2.85,2.88-6.13,2.88-9.84,0-4.71-.99-8.29-2.97-10.77-1.98-2.48-4.89-4.43-8.73-5.85-3.84-1.42-8.67-2.69-14.49-3.81-4.58-.87-8.76-1.92-12.54-3.16-3.78-1.24-7.03-2.88-9.75-4.92-2.72-2.04-4.83-4.49-6.32-7.34-1.49-2.85-2.23-6.25-2.23-10.22,0-5.08,1.24-9.5,3.71-13.28,2.48-3.78,6.07-6.75,10.77-8.92,4.7-2.17,10.15-3.25,16.34-3.25,8.79,0,16.13,2.32,22.01,6.97,5.88,4.64,9.32,11.55,10.31,20.71h-8.36c-.74-6.07-3.1-10.93-7.06-14.58-3.96-3.65-9.66-5.48-17.09-5.48s-12.48,1.58-16.25,4.74c-3.78,3.16-5.67,7.34-5.67,12.54,0,2.97.77,5.6,2.32,7.89,1.55,2.29,4.05,4.34,7.52,6.13,3.46,1.8,8.05,3.31,13.75,4.55,6.19,1.11,11.76,2.6,16.72,4.46,4.95,1.86,8.94,4.49,11.98,7.89,3.03,3.41,4.61,8.39,4.74,14.95-.12,5.08-1.49,9.69-4.09,13.84-2.6,4.15-6.35,7.43-11.24,9.84-4.89,2.42-10.74,3.62-17.55,3.62Z"/><path class="cls-1" d="M820.04,160.11c-8.67,0-16.19-2.07-22.57-6.22-6.38-4.15-11.27-9.94-14.67-17.37-3.41-7.43-5.11-16.04-5.11-25.82,0-10.28,1.79-19.04,5.39-26.28,3.59-7.24,8.67-12.78,15.23-16.62,6.56-3.84,13.99-5.76,22.29-5.76,9.04,0,16.59,2.04,22.66,6.13,6.07,4.09,10.62,9.38,13.65,15.88,3.03,6.5,4.55,13.72,4.55,21.64v3.25c0,1.05-.06,2.32-.19,3.81h-77.83v-7.24h70.21c-.25-11.76-3.47-20.71-9.66-26.84-6.19-6.13-14.12-9.19-23.77-9.19-5.94,0-11.52,1.36-16.72,4.09-5.2,2.73-9.44,6.9-12.72,12.54-3.28,5.64-4.92,12.85-4.92,21.64v3.53c0,9.29,1.61,17.03,4.83,23.22,3.22,6.19,7.4,10.77,12.54,13.75,5.14,2.97,10.74,4.46,16.81,4.46,7.92,0,14.42-1.83,19.5-5.48,5.08-3.65,8.73-8.76,10.96-15.32h8.54c-1.61,5.33-4.12,10.19-7.52,14.58-3.41,4.4-7.68,7.77-12.82,10.12-5.14,2.35-11.36,3.53-18.67,3.53Z"/><path class="cls-1" d="M875.46,158.56c-1.53,0-2.84-.56-3.92-1.69-1.08-1.12-1.62-2.45-1.62-3.99,0-1.62.54-2.99,1.62-4.12,1.08-1.12,2.38-1.69,3.92-1.69,1.62,0,2.97.56,4.05,1.69,1.08,1.13,1.62,2.5,1.62,4.12,0,1.53-.54,2.86-1.62,3.99s-2.43,1.69-4.05,1.69Z"/><path class="cls-1" d="M897.17,81.41c-1.12,0-2.1-.42-2.94-1.26-.84-.84-1.26-1.82-1.26-2.94,0-1.28.42-2.28,1.26-3s1.82-1.08,2.94-1.08,2.1.36,2.94,1.08,1.26,1.72,1.26,3c0,1.12-.42,2.1-1.26,2.94-.84.84-1.82,1.26-2.94,1.26ZM894.54,157.88v-60.41h5.27v60.41h-5.27Z"/><path class="cls-1" d="M916.35,157.88v-60.41h4.79l.48,12.23c2.08-4.55,4.97-7.97,8.69-10.25,3.71-2.28,7.85-3.42,12.4-3.42s8.29.88,11.69,2.64c3.39,1.76,6.03,4.43,7.91,8.03,1.88,3.6,2.82,8.31,2.82,14.14v37.04h-5.27v-36.32c0-7.03-1.54-12.24-4.61-15.64-3.08-3.4-7.49-5.09-13.24-5.09-4,0-7.47.96-10.43,2.88-2.96,1.92-5.35,4.67-7.19,8.27-1.84,3.6-2.76,8.03-2.76,13.3v32.6h-5.27Z"/></svg>