<?xml version="1.0" encoding="UTF-8"?><svg id="Layer_1" xmlns="http://www.w3.org/2000/svg" viewBox="0 0 1036.86 209.22"><defs><style>.cls-1{fill:#231f20;}.cls-2{fill:#3436c6;}</style></defs><path class="cls-2" d="M79.87,160.74H3.71v-6.32l5.02-.37c8.73-.56,12.44-5.02,12.44-13.37V50.78c0-8.36-3.71-12.82-12.44-13.37l-5.02-.37v-6.31h70.03c28.05,0,46.44,12.07,46.44,31.58,0,13-10.22,25.45-31.21,29.16,25.45,2.79,38.08,17.46,38.08,33.43,0,22.1-18.76,35.85-47.18,35.85ZM89.71,63.22c0-15.6-10.4-24.33-28.6-24.33h-16.53v3.9h7.43v45.51h9.29c18.02,0,28.42-10.03,28.42-25.08ZM96.03,124.71c0-17.46-10.59-28.6-28.79-28.6h-15.23v52.38h-7.43v3.9h22.66c18.2,0,28.79-10.03,28.79-27.68Z"/><path class="cls-2" d="M139.12,81.05l-6.87-3.34,41.61-10.96v13.19c-.93,1.67-5.39,9.47-6.13,11.33v8.92c7.99-21.55,20.8-32.69,33.99-32.69,11.7,0,17.65,6.87,17.65,15.42,0,7.99-5.57,12.82-12.07,12.82s-11.52-4.83-11.52-10.4c0-2.04.93-4.64,1.86-5.02h2.79v-3.53c-10.22-1.11-19.69,7.62-26.56,23.03v43.28c0,7.06,2.79,10.96,9.1,11.52l4.27.37v5.76h-52.75v-5.76l4.27-.37c6.32-.56,9.1-4.46,9.1-11.52v-50.15c0-5.94-1.3-8.17-8.73-11.89Z"/><path class="cls-2" d="M281.03,142.17v-6.5l-5.57,7.43c-9.1,12.07-18.76,19.69-32.69,19.69-15.42,0-24.33-7.8-24.33-21.73s12.26-19.5,28.05-24.7l27.49-9.1v-11.89c0-10.4-5.2-18.02-16.9-18.02s-15.97,5.2-15.97,10.96h4.46c1.67,11.52-3.71,17.46-11.33,17.46s-12.07-5.57-12.07-12.44c0-14.49,16.9-26,39.75-26,26,0,37.89,11.89,37.89,32.51v42.16c0,4.83,2.97,7.62,7.06,7.62,2.04,0,4.64-.37,7.24-2.79l.56.37c-4.46,10.4-14.3,15.23-22.85,15.23-10.03,0-15.97-3.9-17.27-11.89l6.5-8.36ZM255.77,148.11c7.06,0,13.75-3.9,18.2-10.59v-23.4l-16.16,5.57c-10.4,3.53-14.67,8.36-14.67,15.97s4.46,12.44,12.63,12.44Z"/><path class="cls-2" d="M322.82,81.05l-6.87-3.34,41.61-10.96v12.45l-6.69,8.36v5.94l2.79-3.16c10.03-12.44,20.99-23.4,35.48-23.4,16.9,0,27.49,10.22,27.49,27.68v48.48c0,7.06,3.53,10.96,9.29,11.52l4.27.37v5.76h-51.45v-5.76l4.09-.37c5.2-.56,7.8-4.46,7.8-11.52v-44.95c0-10.4-5.57-16.16-14.86-16.16-7.06,0-13.37,4.46-18.2,11.33v49.78c0,7.06,2.6,10.96,7.8,11.52l4.09.37v5.76h-51.27v-5.76l4.27-.37c5.76-.56,9.1-4.27,9.1-11.52v-50.15c0-5.94-1.3-8.17-8.73-11.89Z"/><path class="cls-2" d="M436.3,119.32c0-30.65,22.85-52.19,54.05-52.19,4.46,0,8.36.37,12.07,1.11v-19.13c0-5.94-1.67-8.17-9.84-12.26l-5.76-2.79,41.61-9.84v116.46c0,5.94,1.3,8.17,8.92,11.89l6.69,3.34-41.61,6.87v-11.14l6.69-8.54v-6.32l-.74.74-2.97,3.9c-9.84,13.37-19.32,21.17-31.58,21.17-21.73,0-37.52-17.46-37.52-43.28ZM484.6,148.11c6.32,0,13.37-4.27,17.83-10.96v-57.21c-4.27-2.97-9.29-4.64-14.67-4.64-15.05,0-25.45,15.05-25.45,37.15,0,20.62,9.29,35.66,22.29,35.66Z"/><path class="cls-1" d="M556.14,160.74V27.26h42.49c15.29,0,26.76,2.95,34.4,8.84,7.64,5.89,11.47,14.85,11.47,26.88,0,6.02-1.38,11.31-4.14,15.89-2.76,4.58-6.52,8.18-11.28,10.81-4.76,2.63-10.4,3.95-16.92,3.95v-1.13c11.66,0,20.9,2.91,27.73,8.74,6.83,5.83,10.25,13.69,10.25,23.59,0,11.91-3.7,20.87-11.09,26.88-7.4,6.02-18.36,9.02-32.9,9.02h-50.01ZM565.54,89.3h33.09c11.53,0,20.4-2.26,26.6-6.77s9.31-10.9,9.31-19.18c0-9.02-2.98-15.79-8.93-20.3-5.95-4.51-14.95-6.77-26.98-6.77h-33.09v53.02ZM565.54,151.71h40.61c11.15,0,19.61-2.26,25.38-6.77,5.76-4.51,8.65-11.34,8.65-20.49,0-8.02-3.04-14.38-9.12-19.08-6.08-4.7-14.38-7.05-24.91-7.05h-40.61v53.39Z"/><path class="cls-1" d="M695.07,163c-9.78,0-17.64-2.41-23.59-7.24-5.95-4.82-8.93-11.37-8.93-19.65,0-7.77,2.73-14.01,8.18-18.71s12.94-7.93,22.47-9.68l38.54-7.14c0-11.53-2.32-19.9-6.96-25.1-4.64-5.2-11.66-7.8-21.06-7.8-8.4,0-15.1,2.04-20.12,6.11-5.01,4.07-8.21,9.94-9.59,17.58l-9.78-.75c1.75-9.9,6.05-17.67,12.88-23.31,6.83-5.64,15.7-8.46,26.6-8.46,11.91,0,21.06,3.42,27.45,10.25,6.39,6.83,9.59,16.95,9.59,30.36v42.11c0,4.26.66,7.11,1.97,8.55,1.32,1.44,3.29,2.16,5.92,2.16h2.07v8.46c-.5.12-1.07.19-1.69.19h-2.07c-3.38,0-6.24-.63-8.55-1.88-2.32-1.25-4.07-3.51-5.26-6.77-1.19-3.26-1.79-7.83-1.79-13.72l1.5.19c-1.38,4.26-3.85,8.27-7.43,12.03s-7.96,6.74-13.16,8.93c-5.2,2.19-10.94,3.29-17.2,3.29ZM695.82,154.54c7.02,0,13.22-1.44,18.61-4.32,5.39-2.88,9.62-6.83,12.69-11.84,3.07-5.01,4.61-10.65,4.61-16.92v-12.78l-36.47,6.96c-7.52,1.38-13.25,3.67-17.2,6.86s-5.92,7.49-5.92,12.88c0,6.14,2.07,10.87,6.2,14.19,4.14,3.32,9.96,4.98,17.48,4.98Z"/><path class="cls-1" d="M800.35,163c-8.4,0-15.6-1.41-21.62-4.23-6.02-2.82-10.72-6.64-14.1-11.47-3.38-4.82-5.26-10.31-5.64-16.45l9.4-.94c.63,7.27,3.7,13.13,9.21,17.58,5.51,4.45,13.1,6.67,22.75,6.67,8.9,0,15.73-1.53,20.49-4.61,4.76-3.07,7.14-7.68,7.14-13.82,0-3.26-.72-6.08-2.16-8.46-1.44-2.38-4.36-4.48-8.74-6.3-4.39-1.82-11.03-3.48-19.93-4.98-9.4-1.63-16.64-3.67-21.71-6.11-5.08-2.44-8.59-5.45-10.53-9.02-1.95-3.57-2.91-7.86-2.91-12.88,0-8.65,3.16-15.67,9.49-21.06,6.33-5.39,14.88-8.08,25.66-8.08,7.52,0,13.88,1.38,19.08,4.14,5.2,2.76,9.37,6.42,12.5,11,3.13,4.58,5.2,9.62,6.2,15.13l-9.4,1.13c-.63-4.01-2.1-7.74-4.42-11.19-2.32-3.45-5.48-6.2-9.49-8.27-4.01-2.07-8.84-3.1-14.48-3.1-8.02,0-14.29,1.76-18.8,5.26-4.51,3.51-6.77,8.46-6.77,14.85,0,4.01.81,7.27,2.44,9.78,1.63,2.51,4.51,4.54,8.65,6.11,4.14,1.57,9.9,2.98,17.3,4.23,9.65,1.63,17.17,3.64,22.56,6.02,5.39,2.38,9.21,5.33,11.47,8.84,2.26,3.51,3.38,7.77,3.38,12.78,0,5.89-1.5,10.88-4.51,14.95-3.01,4.07-7.27,7.18-12.78,9.31-5.52,2.13-12.1,3.2-19.74,3.2Z"/><path class="cls-1" d="M892.84,163c-9.4,0-17.39-2.29-23.97-6.86-6.58-4.57-11.56-10.81-14.95-18.71-3.38-7.9-5.08-16.73-5.08-26.51s1.66-18.58,4.98-26.41c3.32-7.83,8.21-14.07,14.66-18.71,6.45-4.64,14.32-6.96,23.59-6.96s17.08,2.26,23.41,6.77c6.33,4.51,11.15,10.62,14.48,18.33,3.32,7.71,4.98,16.45,4.98,26.23v3.01h-76.52c.38,12.91,3.67,22.97,9.87,30.17,6.2,7.21,14.38,10.81,24.53,10.81,8.15,0,14.79-1.97,19.93-5.92,5.14-3.95,8.65-9.12,10.53-15.51l9.78.75c-2.51,8.52-7.27,15.57-14.29,21.15-7.02,5.58-15.67,8.37-25.94,8.37ZM858.44,105.09h66.55c-.5-11.78-3.6-20.96-9.31-27.54-5.71-6.58-13.57-9.87-23.59-9.87s-17.3,3.29-23.31,9.87c-6.02,6.58-9.46,15.76-10.34,27.54Z"/><path class="cls-1" d="M944.41,160.74v-8.67h8.24v8.67h-8.24Z"/><path class="cls-1" d="M963.78,94.08v-8.45h5.56v8.45h-5.56ZM963.99,160.74v-56.71h5.14v56.71h-5.14Z"/><path class="cls-1" d="M985.39,160.74v-56.71h4.82l.21,15.19-.75-.32c.5-3.57,1.67-6.54,3.53-8.93,1.85-2.39,4.15-4.19,6.9-5.4,2.75-1.21,5.76-1.82,9.04-1.82,4.28,0,7.81.96,10.59,2.89,2.78,1.93,4.85,4.51,6.21,7.76,1.35,3.25,2.03,6.87,2.03,10.86v36.49h-5.14v-33.92c0-3.85-.5-7.22-1.5-10.11-1-2.89-2.57-5.14-4.71-6.74s-4.99-2.41-8.56-2.41c-5.35,0-9.61,1.75-12.79,5.24-3.17,3.5-4.76,8.17-4.76,14.02v33.92h-5.14Z"/></svg>